<?xml version="1.0" encoding="UTF-8" standalone="no"?>
<!-- Created with Inkscape (http://www.inkscape.org/) -->

<svg
   width="39.6875mm"
   height="39.6875mm"
   viewBox="0 0 39.6875 39.6875"
   version="1.1"
   id="svg1"
   xml:space="preserve"
   inkscape:version="1.4.2 (f4327f4, 2025-05-13)"
   sodipodi:docname="meme maker.svg"
   xmlns:inkscape="http://www.inkscape.org/namespaces/inkscape"
   xmlns:sodipodi="http://sodipodi.sourceforge.net/DTD/sodipodi-0.dtd"
   xmlns="http://www.w3.org/2000/svg"
   xmlns:svg="http://www.w3.org/2000/svg"><sodipodi:namedview
     id="namedview1"
     pagecolor="#ffffff"
     bordercolor="#000000"
     borderopacity="0.25"
     inkscape:showpageshadow="2"
     inkscape:pageopacity="0.0"
     inkscape:pagecheckerboard="0"
     inkscape:deskcolor="#d1d1d1"
     inkscape:document-units="mm"
     inkscape:zoom="0.61632447"
     inkscape:cx="-11101.295"
     inkscape:cy="-6268.6137"
     inkscape:window-width="2560"
     inkscape:window-height="1566"
     inkscape:window-x="-11"
     inkscape:window-y="-11"
     inkscape:window-maximized="1"
     inkscape:current-layer="layer1"
     inkscape:lockguides="false"
     showguides="true"><inkscape:page
       x="0"
       y="0"
       width="39.6875"
       height="39.6875"
       id="page2"
       margin="0"
       bleed="0" /></sodipodi:namedview><defs
     id="defs1" /><g
     inkscape:label="Layer 1"
     inkscape:groupmode="layer"
     id="layer1"
     transform="translate(3159.654,3104.1824)"><rect
       style="opacity:0;fill:#ffffff;fill-opacity:1;stroke:none;stroke-width:1;stroke-dasharray:none"
       id="rect31"
       width="39.6875"
       height="39.6875"
       x="-3159.6541"
       y="-3104.1824"
       inkscape:export-filename="Downloads\$MIME\images\pump.png"
       inkscape:export-xdpi="96"
       inkscape:export-ydpi="96" /><g
       id="g31"
       transform="matrix(0.87341778,0.87341778,-0.87341778,0.87341778,-3145.4617,2406.34)"><g
         id="g22"
         style="opacity:1"><g
           id="g21"><path
             id="path21"
             style="opacity:1;fill:#ffffff;fill-opacity:1;stroke:none;stroke-width:1;stroke-dasharray:none"
             d="m -3145.5346,-3146.2565 v -6.3324 c 0,-3.0777 2.4775,-5.5552 5.5552,-5.5552 3.0777,0 5.5557,2.4775 5.5557,5.5552 v 6.3324 z" /><path
             id="rect20"
             style="opacity:1;fill:#4d4d4d;fill-opacity:1;stroke:none;stroke-width:1;stroke-dasharray:none"
             d="m -3145.5346,-3146.2565 v 6.3324 c 0,3.0777 2.4775,5.5552 5.5552,5.5552 3.0777,0 5.5557,-2.4775 5.5557,-5.5552 v -6.3324 z" /></g></g><rect
         style="opacity:1;fill:none;fill-opacity:1;stroke:#000000;stroke-width:1;stroke-dasharray:none"
         id="rect19"
         width="11.110944"
         height="23.775032"
         x="-3145.5347"
         y="-3158.1438"
         ry="5.5554719" /><path
         id="path29"
         style="opacity:0.222535;fill:#000000;fill-opacity:1;stroke:none;stroke-width:1;stroke-dasharray:none"
         d="m -3139.9794,-3158.1442 c -0.5042,0 -0.992,0.067 -1.4557,0.1912 v 0 c 3.0283,0 5.4664,2.4376 5.4664,5.4658 v 6.2307 6.2306 c 0,3.0283 -2.4381,5.4658 -5.4664,5.4658 v 0 c 0.4637,0.1247 0.9515,0.1912 1.4557,0.1912 3.0777,0 5.5557,-2.4775 5.5557,-5.5552 v -6.3324 -6.3325 c 0,-3.0777 -2.478,-5.5552 -5.5557,-5.5552 z" /></g><path
       style="opacity:1;fill:none;fill-opacity:1;stroke:#000000;stroke-width:1.23;stroke-dasharray:none"
       d="m -3144.8314,-3089.022 9.7047,9.7044"
       id="path32" /></g></svg>
